<svg xmlns="http://www.w3.org/2000/svg" width="493.47015380859375" height="193.2713165283203" viewBox="-367.4868469238281 -134.9608917236328 493.47015380859375 193.2713165283203"><title>Neo4j Graph Visualization</title><desc>Created using Neo4j (http://www.neo4j.com/)</desc><g class="layer relationships"><g class="relationship" transform="translate(-338.4868421919962 -105.15041105422706) rotate(376.0810885798098)"><path class="outline" fill="#A5ABB6" stroke="none" d="M 21.40063509461097,12.933012701892217 L 21.90063509461097,12.06698729810778 A 116.03492339778352 116.03492339778352 0 0 0 47.2241276899968,22.91156361802787 L 46.94236795640843,23.87104861141141 A 117.03492339778352 117.03492339778352 0 0 1 21.40063509461097,12.933012701892217 Z M 108.19838360972153,25.14451054149579 L 107.95674388377324,24.17414450600009 A 116.03492339778352 116.03492339778352 0 0 0 133.70906159322962,14.391392062114502 L 132.31833464935968,11.733220027126132 L 140.1432508321808,11.589391198916061 L 135.5633641850562,17.93562144209899 L 134.17263724118627,15.277449407110623 A 117.03492339778352 117.03492339778352 0 0 1 108.19838360972153,25.14451054149579"/><text text-anchor="middle" pointer-events="none" font-size="8px" fill="#000000" x="77.49595542174303" y="31.08754486850289" font-family="sans-serif">PublicTransport</text></g><g class="relationship" transform="translate(-182.5426458248923 -60.19518641411912) rotate(383.122201988938)"><path class="outline" fill="#A5ABB6" stroke="none" d="M 25 0.5 L 62.99671481055799 0.5 L 62.99671481055799 -0.5 L 25 -0.5 Z M 82.33265231055799 0.5 L 120.32936712111598 0.5 L 120.32936712111598 3.5 L 127.32936712111598 0 L 120.32936712111598 -3.5 L 120.32936712111598 -0.5 L 82.33265231055799 -0.5 Z"/><text text-anchor="middle" pointer-events="none" font-size="8px" fill="#000000" x="72.66468356055799" y="3" font-family="sans-serif">trek</text></g><g class="relationship" transform="translate(-42.44998839143327 -0.376431656507947) rotate(372.01941841498177)"><path class="outline" fill="#A5ABB6" stroke="none" d="M 25 0.5 L 58.11132971682828 0.5 L 58.11132971682828 -0.5 L 25 -0.5 Z M 77.44726721682828 0.5 L 110.55859693365656 0.5 L 110.55859693365656 3.5 L 117.55859693365656 0 L 110.55859693365656 -3.5 L 110.55859693365656 -0.5 L 77.44726721682828 -0.5 Z"/><text text-anchor="middle" pointer-events="none" font-size="8px" fill="#000000" x="67.77929846682828" y="3" font-family="sans-serif">trek</text></g><g class="relationship" transform="translate(-338.4868421919962 -105.15041105422706) rotate(376.0810885798098)"><path class="outline" fill="#A5ABB6" stroke="none" d="M 25 0.5 L 67.97937347854193 0.5 L 67.97937347854193 -0.5 L 25 -0.5 Z M 87.31531097854193 0.5 L 130.29468445708386 0.5 L 130.29468445708386 3.5 L 137.29468445708386 0 L 130.29468445708386 -3.5 L 130.29468445708386 -0.5 L 87.31531097854193 -0.5 Z"/><text text-anchor="middle" pointer-events="none" font-size="8px" fill="#000000" x="77.64734222854193" y="3" font-family="sans-serif">trek</text></g><g class="relationship" transform="translate(-338.4868421919962 -105.15041105422706) rotate(376.0810885798098)"><path class="outline" fill="#A5ABB6" stroke="none" d="M 21.40063509461097,-12.933012701892217 L 21.90063509461097,-12.06698729810778 A 116.03492339778352 116.03492339778352 0 0 1 66.57710467368432,-26.84323468963028 L 66.46213073541503,-27.836603198049403 A 117.03492339778352 117.03492339778352 0 0 0 21.40063509461097,-12.933012701892217 Z M 88.5306760492242,-28.29539001285849 L 88.45708622658256,-27.298101419720282 A 116.03492339778352 116.03492339778352 0 0 1 133.70906159322962,-14.391392062114502 L 132.31833464935968,-11.733220027126132 L 140.1432508321808,-11.589391198916061 L 135.5633641850562,-17.93562144209899 L 134.17263724118627,-15.277449407110623 A 117.03492339778352 117.03492339778352 0 0 0 88.5306760492242,-28.29539001285849"/><text text-anchor="middle" pointer-events="none" font-size="8px" fill="#000000" x="77.49595542174302" y="-25.08754486850289" font-family="sans-serif">road</text></g></g><g class="layer nodes"><g class="node" aria-label="graph-node177" transform="translate(-338.4868421919962,-105.15041105422706)"><circle class="outline" cx="0" cy="0" r="25" fill="#57C7E3" stroke="#23b3d7" stroke-width="2px"/><text class="caption" text-anchor="middle" pointer-events="none" x="0" y="5" font-size="10px" fill="#2A2C34" font-family="sans-serif"> Darjeeling</text></g><g class="node" aria-label="graph-node179" transform="translate(96.98330784203306,29.31042505084956)"><circle class="outline" cx="0" cy="0" r="25" fill="#D9C8AE" stroke="#c0a378" stroke-width="2px"/><text class="caption" text-anchor="middle" pointer-events="none" x="0" y="5" font-size="10px" fill="#2A2C34" font-family="sans-serif"> Sandakp…</text></g><g class="node" aria-label="graph-node176" transform="translate(-182.5426458248923,-60.19518641411912)"><circle class="outline" cx="0" cy="0" r="25" fill="#57C7E3" stroke="#23b3d7" stroke-width="2px"/><text class="caption" text-anchor="middle" pointer-events="none" x="0" y="5" font-size="10px" fill="#2A2C34" font-family="sans-serif"> Rimbik</text></g><g class="node" aria-label="graph-node178" transform="translate(-42.44998839143327,-0.376431656507947)"><circle class="outline" cx="0" cy="0" r="25" fill="#F16667" stroke="#eb2728" stroke-width="2px"/><text class="caption" text-anchor="middle" pointer-events="none" x="0" y="5" font-size="10px" fill="#FFFFFF" font-family="sans-serif"> BhikeBh…</text></g></g></svg>