<svg xmlns="http://www.w3.org/2000/svg" width="321.4579772949219" height="206.76449584960938" viewBox="-157.43707275390625 -106.91706848144531 321.4579772949219 206.76449584960938"><title>Neo4j Graph Visualization</title><desc>Created using Neo4j (http://www.neo4j.com/)</desc><g class="layer relationships"><g class="relationship" transform="translate(13.515545953716664 70.84744278754276) rotate(268.2855825369726)"><path class="outline" fill="#A5ABB6" stroke="none" d="M 24.018736134675446,-6.953439040707552 L 24.277555179777966,-5.987513214418485 A 188.53932354303345 188.53932354303345 0 0 1 47.78533886686527,-10.708009425625505 L 47.65120353890636,-11.698972449049364 A 189.53932354303345 189.53932354303345 0 0 0 24.018736134675446,-6.953439040707552 Z M 94.11860819347507,-12.240042755923014 L 94.00758381638724,-11.246225072596616 A 188.53932354303345 188.53932354303345 0 0 1 117.61891057210963,-7.074387684416825 L 116.91013873282039,-4.159316076406047 L 124.53887296401632,-5.906431994077052 L 118.56393969116196,-10.961149828431196 L 117.85516785187272,-8.046078220420418 A 189.53932354303345 189.53932354303345 0 0 0 94.11860819347507,-12.240042755923014"/><text text-anchor="middle" pointer-events="none" font-size="8px" fill="#000000" x="70.87408253799902" y="-9.89902076261211" transform="rotate(180 70.87408253799902 -12.89902076261211)" font-family="sans-serif">twowheeler</text></g><g class="relationship" transform="translate(13.515545953716664 70.84744278754276) rotate(268.2855825369726)"><path class="outline" fill="#A5ABB6" stroke="none" d="M 24.018736134675446,6.953439040707552 L 24.277555179777966,5.987513214418485 A 188.53932354303345 188.53932354303345 0 0 0 61.2452331704947,12.04033597889034 L 61.1824882243972,13.038365573511271 A 189.53932354303345 189.53932354303345 0 0 1 24.018736134675446,6.953439040707552 Z M 80.55980449965467,13.263996648484834 L 80.52031569334112,12.264776635586799 A 188.53932354303345 188.53932354303345 0 0 0 117.61891057210963,7.074387684416825 L 116.91013873282039,4.159316076406047 L 124.53887296401632,5.906431994077052 L 118.56393969116196,10.961149828431196 L 117.85516785187272,8.046078220420418 A 189.53932354303345 189.53932354303345 0 0 1 80.55980449965467,13.263996648484834"/><text text-anchor="middle" pointer-events="none" font-size="8px" fill="#000000" x="70.87408253799912" y="15.89902076261211" transform="rotate(180 70.87408253799912 12.89902076261211)" font-family="sans-serif">trek</text></g><g class="relationship" transform="translate(13.515545953716664 70.84744278754276) rotate(327.37050462002526)"><path class="outline" fill="#A5ABB6" stroke="none" d="M 24.018736134675446,-6.953439040707552 L 24.277555179777966,-5.987513214418485 A 179.57531236663147 179.57531236663147 0 0 1 45.51703059037317,-10.324034913954392 L 45.376487688748725,-11.31410950346924 A 180.57531236663147 180.57531236663147 0 0 0 24.018736134675446,-6.953439040707552 Z M 91.83785334949263,-11.871426713125885 L 91.72109991834701,-10.878265781395413 A 179.57531236663147 179.57531236663147 0 0 1 113.05848468691794,-7.052465550622596 L 112.35176028122594,-4.136896890069517 L 119.97926562915713,-5.88937004743342 L 114.00078389450728,-10.939890431360036 L 113.29405948881528,-8.024321770806957 A 180.57531236663147 180.57531236663147 0 0 0 91.83785334949263,-11.871426713125885"/><text text-anchor="middle" pointer-events="none" font-size="8px" fill="#000000" x="68.59516717978532" y="-9.593439769510894" font-family="sans-serif">twowheeler</text></g><g class="relationship" transform="translate(13.515545953716664 70.84744278754276) rotate(327.37050462002526)"><path class="outline" fill="#A5ABB6" stroke="none" d="M 24.018736134675446,6.953439040707552 L 24.277555179777966,5.987513214418485 A 179.57531236663147 179.57531236663147 0 0 0 58.968467610473304,11.719163732102686 L 58.90283164813145,12.717007367371991 A 180.57531236663147 180.57531236663147 0 0 1 24.018736134675446,6.953439040707552 Z M 78.28174988432538,12.949462967502683 L 78.24006819630732,11.95033202669265 A 179.57531236663147 179.57531236663147 0 0 0 113.05848468691794,7.052465550622596 L 112.35176028122594,4.136896890069517 L 119.97926562915713,5.88937004743342 L 114.00078389450728,10.939890431360036 L 113.29405948881528,8.024321770806957 A 180.57531236663147 180.57531236663147 0 0 1 78.28174988432538,12.949462967502683"/><text text-anchor="middle" pointer-events="none" font-size="8px" fill="#000000" x="68.59516717978536" y="15.593439769510894" font-family="sans-serif">trek</text></g><g class="relationship" transform="translate(135.02089930294053 -6.946634034403615) rotate(209.39886913860386)"><path class="outline" fill="#A5ABB6" stroke="none" d="M 21.40063509461097,12.933012701892217 L 21.90063509461097,12.06698729810778 A 98.01498186783148 98.01498186783148 0 0 0 57.72131773120959,24.307386015314904 L 57.58677903063523,25.29829435519693 A 99.01498186783148 99.01498186783148 0 0 1 21.40063509461097,12.933012701892217 Z M 79.6582675734726,25.811113799504824 L 79.56989567883724,24.815026249016142 A 98.01498186783148 98.01498186783148 0 0 0 115.92041582523686,14.251487524028281 L 114.54269920664665,11.586549078423893 L 122.3682249680788,11.480971821585166 L 117.75737131669048,17.804738784834132 L 116.37965469810027,15.139800339229744 A 99.01498186783148 99.01498186783148 0 0 1 79.6582675734726,25.811113799504824"/><text text-anchor="middle" pointer-events="none" font-size="8px" fill="#000000" x="68.61979974769997" y="28.671924474093075" transform="rotate(180 68.61979974769997 25.671924474093075)" font-family="sans-serif">road</text></g><g class="relationship" transform="translate(135.02089930294053 -6.946634034403615) rotate(209.39886913860386)"><path class="outline" fill="#A5ABB6" stroke="none" d="M 25 0.5 L 59.120053924057686 0.5 L 59.120053924057686 -0.5 L 25 -0.5 Z M 78.45599142405769 0.5 L 112.57604534811537 0.5 L 112.57604534811537 3.5 L 119.57604534811537 0 L 112.57604534811537 -3.5 L 112.57604534811537 -0.5 L 78.45599142405769 -0.5 Z"/><text text-anchor="middle" pointer-events="none" font-size="8px" fill="#000000" x="68.78802267405769" y="3" transform="rotate(180 68.78802267405769 0)" font-family="sans-serif">trek</text></g><g class="relationship" transform="translate(135.02089930294053 -6.946634034403615) rotate(209.39886913860386)"><path class="outline" fill="#A5ABB6" stroke="none" d="M 21.40063509461097,-12.933012701892217 L 21.90063509461097,-12.06698729810778 A 98.01498186783148 98.01498186783148 0 0 1 45.799753282360015,-21.92794921016693 L 45.543584559296605,-22.89458129391133 A 99.01498186783148 99.01498186783148 0 0 0 21.40063509461097,-12.933012701892217 Z M 91.80010399900992,-23.969327229087014 L 91.58910584927162,-22.99184076840993 A 98.01498186783148 98.01498186783148 0 0 1 115.92041582523686,-14.251487524028281 L 114.54269920664665,-11.586549078423893 L 122.3682249680788,-11.480971821585166 L 117.75737131669048,-17.804738784834132 L 116.37965469810027,-15.139800339229744 A 99.01498186783148 99.01498186783148 0 0 0 91.80010399900992,-23.969327229087014"/><text text-anchor="middle" pointer-events="none" font-size="8px" fill="#000000" x="68.61979974769997" y="-22.671924474093075" transform="rotate(180 68.61979974769997 -25.671924474093075)" font-family="sans-serif">twowheeler</text></g><g class="relationship" transform="translate(9.062851052389327 -77.91707132636435) rotate(524.3899879123362)"><path class="outline" fill="#A5ABB6" stroke="none" d="M 24.018736134675446,6.953439040707552 L 24.277555179777966,5.987513214418485 A 176.60187852746236 176.60187852746236 0 0 0 44.765495842720355,10.195004387245234 L 44.622688817613174,11.184754938434793 A 177.60187852746236 177.60187852746236 0 0 1 24.018736134675446,6.953439040707552 Z M 91.08177731480737,11.747672300658223 L 90.96299314007817,10.754752203251627 A 176.60187852746236 176.60187852746236 0 0 0 111.54686353346955,7.044903930650258 L 110.84084535626019,4.129164173153033 L 118.46792599716463,5.883484810077961 L 112.48822110308203,10.932556940646558 L 111.78220292587267,8.016817183149334 A 177.60187852746236 177.60187852746236 0 0 1 91.08177731480737,11.747672300658223"/><text text-anchor="middle" pointer-events="none" font-size="8px" fill="#000000" x="67.83980327524561" y="15.492077799943416" transform="rotate(180 67.83980327524561 12.492077799943416)" font-family="sans-serif">twowheeler</text></g><g class="relationship" transform="translate(9.062851052389327 -77.91707132636435) rotate(524.3899879123362)"><path class="outline" fill="#A5ABB6" stroke="none" d="M 24.018736134675446,-6.953439040707552 L 24.277555179777966,-5.987513214418485 A 176.60187852746236 176.60187852746236 0 0 1 58.21386933324066,-11.612313797862754 L 58.14721310337221,-12.610089798285571 A 177.60187852746236 177.60187852746236 0 0 0 24.018736134675446,-6.953439040707552 Z M 77.52668863339207,-12.84489946846 L 77.48422734890369,-11.845801355500328 A 176.60187852746236 176.60187852746236 0 0 1 111.54686353346955,-7.044903930650258 L 110.84084535626019,-4.129164173153033 L 118.46792599716463,-5.883484810077961 L 112.48822110308203,-10.932556940646558 L 111.78220292587267,-8.016817183149334 A 177.60187852746236 177.60187852746236 0 0 0 77.52668863339207,-12.84489946846"/><text text-anchor="middle" pointer-events="none" font-size="8px" fill="#000000" x="67.83980327524554" y="-9.492077799943416" transform="rotate(180 67.83980327524554 -12.492077799943416)" font-family="sans-serif">trek</text></g></g><g class="layer nodes"><g class="node" aria-label="graph-node180" transform="translate(13.515545953716664,70.84744278754276)"><circle class="outline" cx="0" cy="0" r="25" fill="#F16667" stroke="#eb2728" stroke-width="2px"/><text class="caption" text-anchor="middle" pointer-events="none" x="0" y="5" font-size="10px" fill="#FFFFFF" font-family="sans-serif"> Sirikhola</text></g><g class="node" aria-label="graph-node184" transform="translate(135.02089930294053,-6.946634034403615)"><circle class="outline" cx="0" cy="0" r="25" fill="#F16667" stroke="#eb2728" stroke-width="2px"/><text class="caption" text-anchor="middle" pointer-events="none" x="0" y="5" font-size="10px" fill="#FFFFFF" font-family="sans-serif"> Rammam</text></g><g class="node" aria-label="graph-node181" transform="translate(9.062851052389327,-77.91707132636435)"><circle class="outline" cx="0" cy="0" r="25" fill="#F16667" stroke="#eb2728" stroke-width="2px"/><text class="caption" text-anchor="middle" pointer-events="none" x="0" y="5" font-size="10px" fill="#FFFFFF" font-family="sans-serif"> Gurdum</text></g><g class="node" aria-label="graph-node179" transform="translate(-128.4370712471078,-39.500501622294195)"><circle class="outline" cx="0" cy="0" r="25" fill="#D9C8AE" stroke="#c0a378" stroke-width="2px"/><text class="caption" text-anchor="middle" pointer-events="none" x="0" y="5" font-size="10px" fill="#2A2C34" font-family="sans-serif"> Sandakp…</text></g></g></svg>