<svg xmlns="http://www.w3.org/2000/svg" width="381.0555419921875" height="534.8238525390625" viewBox="-168.08985900878906 -279.9657287597656 381.0555419921875 534.8238525390625"><title>Neo4j Graph Visualization</title><desc>Created using Neo4j (http://www.neo4j.com/)</desc><g class="layer relationships"><g class="relationship" transform="translate(-125.69646034935435 -195.48728565660076) rotate(343.74219860876497)"><path class="outline" fill="#A5ABB6" stroke="none" d="M 24.018736134675446,-6.953439040707552 L 24.277555179777966,-5.987513214418485 A 285.1357900328249 285.1357900328249 0 0 1 84.57380486090284,-15.383405654667342 L 84.52645085031662,-16.38228382425632 A 286.1357900328249 286.1357900328249 0 0 0 24.018736134675446,-6.953439040707552 Z M 106.57038349661602,-16.57717121136818 L 106.54069739752643,-15.577611940728957 A 285.1357900328249 285.1357900328249 0 0 1 166.99364481233255,-7.24924660172249 L 166.2685427472031,-4.338194043772872 L 173.9069511250699,-6.042517209412049 L 167.96044756583845,-11.13065001232198 L 167.235345500709,-8.219597454372362 A 286.1357900328249 286.1357900328249 0 0 0 106.57038349661602,-16.57717121136818"/><text text-anchor="middle" pointer-events="none" font-size="8px" fill="#000000" x="95.55095989385593" y="-13.192117540390939" font-family="sans-serif">road</text></g><g class="relationship" transform="translate(64.54496044825963 -250.96570816115747) rotate(398.3329233371285)"><path class="outline" fill="#A5ABB6" stroke="none" d="M 21.40063509461097,-12.933012701892217 L 21.90063509461097,-12.06698729810778 A 105.81869518866802 105.81869518866802 0 0 1 62.8737216969604,-25.568648967670654 L 62.760922526920524,-26.56226677509879 A 106.81869518866802 106.81869518866802 0 0 0 21.40063509461097,-12.933012701892217 Z M 82.15629165257494,-26.991088691285512 L 82.0875180268472,-25.993456400105913 A 105.81869518866802 105.81869518866802 0 0 1 123.61730473082321,-14.315892018556589 L 122.23359870548833,-11.654058508463978 L 130.05886725859511,-11.530883544457309 L 125.46224609793637,-17.865003365346737 L 124.0785400726015,-15.203169855254128 A 106.81869518866802 106.81869518866802 0 0 0 82.15629165257494,-26.991088691285512"/><text text-anchor="middle" pointer-events="none" font-size="8px" fill="#000000" x="72.45990380829691" y="-23.718027897527847" font-family="sans-serif">trek</text></g><g class="relationship" transform="translate(183.965714826566 -156.54140715651053) rotate(468.640194994887)"><path class="outline" fill="#A5ABB6" stroke="none" d="M 21.40063509461097,12.933012701892217 L 21.90063509461097,12.06698729810778 A 104.04674581358701 104.04674581358701 0 0 0 48.73000119564949,22.910282427145532 L 48.48785996760096,23.880523441367842 A 105.04674581358701 105.04674581358701 0 0 1 21.40063509461097,12.933012701892217 Z M 94.78005613738834,24.915406348494457 L 94.58151549746225,23.935313692518633 A 104.04674581358701 104.04674581358701 0 0 0 121.86864950065927,14.301817311113817 L 120.48625235432795,11.63930381259123 L 128.31158052160055,11.5199762194278 L 123.71184569576772,17.851835309143933 L 122.32944854943639,15.189321810621346 A 105.04674581358701 105.04674581358701 0 0 1 94.78005613738834,24.915406348494457"/><text text-anchor="middle" pointer-events="none" font-size="8px" fill="#000000" x="71.58740218970128" y="29.48049338046617" transform="rotate(180 71.58740218970128 26.48049338046617)" font-family="sans-serif">twowheeler</text></g><g class="relationship" transform="translate(135.8625421779795 -13.936737255460548) rotate(457.31169216781905)"><path class="outline" fill="#A5ABB6" stroke="none" d="M 25 0.5 L 68.41340395892733 0.5 L 68.41340395892733 -0.5 L 25 -0.5 Z M 87.74934145892733 0.5 L 131.16274541785467 0.5 L 131.16274541785467 3.5 L 138.16274541785467 0 L 131.16274541785467 -3.5 L 131.16274541785467 -0.5 L 87.74934145892733 -0.5 Z"/><text text-anchor="middle" pointer-events="none" font-size="8px" fill="#000000" x="78.08137270892733" y="3" transform="rotate(180 78.08137270892733 0)" font-family="sans-serif">trek</text></g><g class="relationship" transform="translate(183.965714826566 -156.54140715651053) rotate(468.640194994887)"><path class="outline" fill="#A5ABB6" stroke="none" d="M 25 0.5 L 62.08162775464439 0.5 L 62.08162775464439 -0.5 L 25 -0.5 Z M 81.41756525464439 0.5 L 118.49919300928877 0.5 L 118.49919300928877 3.5 L 125.49919300928877 0 L 118.49919300928877 -3.5 L 118.49919300928877 -0.5 L 81.41756525464439 -0.5 Z"/><text text-anchor="middle" pointer-events="none" font-size="8px" fill="#000000" x="71.74959650464439" y="3" transform="rotate(180 71.74959650464439 0)" font-family="sans-serif">trek</text></g><g class="relationship" transform="translate(183.965714826566 -156.54140715651053) rotate(468.640194994887)"><path class="outline" fill="#A5ABB6" stroke="none" d="M 21.40063509461097,-12.933012701892217 L 21.90063509461097,-12.06698729810778 A 104.04674581358701 104.04674581358701 0 0 1 60.68117814478483,-25.16040861592414 L 60.55390045096492,-26.152275738403702 A 105.04674581358701 105.04674581358701 0 0 0 21.40063509461097,-12.933012701892217 Z M 82.62454867162188,-26.64567502559649 L 82.54172325325379,-25.649110953360207 A 104.04674581358701 104.04674581358701 0 0 1 121.86864950065927,-14.301817311113817 L 120.48625235432795,-11.63930381259123 L 128.31158052160055,-11.5199762194278 L 123.71184569576772,-17.851835309143933 L 122.32944854943639,-15.189321810621346 A 105.04674581358701 105.04674581358701 0 0 0 82.62454867162188,-26.64567502559649"/><text text-anchor="middle" pointer-events="none" font-size="8px" fill="#000000" x="71.58740218970131" y="-23.48049338046617" transform="rotate(180 71.58740218970131 -26.48049338046617)" font-family="sans-serif">road</text></g><g class="relationship" transform="translate(64.54496044825963 -250.96570816115747) rotate(398.3329233371285)"><path class="outline" fill="#A5ABB6" stroke="none" d="M 25 0.5 L 49.38798471301676 0.5 L 49.38798471301676 -0.5 L 25 -0.5 Z M 95.85282846301676 0.5 L 120.24081317603353 0.5 L 120.24081317603353 3.5 L 127.24081317603353 0 L 120.24081317603353 -3.5 L 120.24081317603353 -0.5 L 95.85282846301676 -0.5 Z"/><text text-anchor="middle" pointer-events="none" font-size="8px" fill="#000000" x="72.62040658801676" y="3" font-family="sans-serif">twowheeler</text></g><g class="relationship" transform="translate(64.54496044825963 -250.96570816115747) rotate(398.3329233371285)"><path class="outline" fill="#A5ABB6" stroke="none" d="M 21.40063509461097,12.933012701892217 L 21.90063509461097,12.06698729810778 A 105.81869518866802 105.81869518866802 0 0 0 61.55160144772105,25.410125011013236 L 61.426308074772294,26.40224474708097 A 106.81869518866802 106.81869518866802 0 0 1 21.40063509461097,12.933012701892217 Z M 83.49667449990227,26.890209516405676 L 83.41535266952778,25.893521621473383 A 105.81869518866802 105.81869518866802 0 0 0 123.61730473082321,14.315892018556589 L 122.23359870548833,11.654058508463978 L 130.05886725859511,11.530883544457309 L 125.46224609793637,17.865003365346737 L 124.0785400726015,15.203169855254128 A 106.81869518866802 106.81869518866802 0 0 1 83.49667449990227,26.890209516405676"/><text text-anchor="middle" pointer-events="none" font-size="8px" fill="#000000" x="72.4599038082969" y="29.718027897527847" font-family="sans-serif">road</text></g><g class="relationship" transform="translate(-125.69646034935435 -195.48728565660076) rotate(343.74219860876497)"><path class="outline" fill="#A5ABB6" stroke="none" d="M 24.018736134675446,6.953439040707552 L 24.277555179777966,5.987513214418485 A 285.1357900328249 285.1357900328249 0 0 0 85.90799851000861,15.443524733081233 L 85.86532365123617,16.442613746347206 A 286.1357900328249 286.1357900328249 0 0 1 24.018736134675446,6.953439040707552 Z M 105.23065332045782,16.61381997167689 L 105.20564936957489,15.614132619331087 A 285.1357900328249 285.1357900328249 0 0 0 166.99364481233255,7.24924660172249 L 166.2685427472031,4.338194043772872 L 173.9069511250699,6.042517209412049 L 167.96044756583845,11.13065001232198 L 167.235345500709,8.219597454372362 A 286.1357900328249 286.1357900328249 0 0 1 105.23065332045782,16.61381997167689"/><text text-anchor="middle" pointer-events="none" font-size="8px" fill="#000000" x="95.55095989385605" y="19.19211754039094" font-family="sans-serif">trek</text></g><g class="relationship" transform="translate(-125.69646034935435 -195.48728565660076) rotate(395.1983752768343)"><path class="outline" fill="#A5ABB6" stroke="none" d="M 21.40063509461097,12.933012701892217 L 21.90063509461097,12.06698729810778 A 102.32821554824245 102.32821554824245 0 0 0 59.83737598377101,24.91785529965088 L 59.70811186229588,25.909465498720692 A 103.32821554824245 103.32821554824245 0 0 1 21.40063509461097,12.933012701892217 Z M 81.77901984490877,26.408249773916282 L 81.6946839553365,25.41181239117212 A 102.32821554824245 102.32821554824245 0 0 0 120.1732358117788,14.287866835955235 L 118.79213600395,11.624680150644702 L 126.61752137880816,11.509165065239836 L 122.01470222221717,17.83878241636928 L 120.63360241438838,15.175595731058745 A 103.32821554824245 103.32821554824245 0 0 1 81.77901984490877,26.408249773916282"/><text text-anchor="middle" pointer-events="none" font-size="8px" fill="#000000" x="70.74150339142764" y="29.250120362789218" font-family="sans-serif">road</text></g><g class="relationship" transform="translate(-4.094087895866969 -109.71141217801087) rotate(394.3844924261682)"><path class="outline" fill="#A5ABB6" stroke="none" d="M 25 0.5 L 71.62685222709108 0.5 L 71.62685222709108 -0.5 L 25 -0.5 Z M 90.96278972709108 0.5 L 137.58964195418216 0.5 L 137.58964195418216 3.5 L 144.58964195418216 0 L 137.58964195418216 -3.5 L 137.58964195418216 -0.5 L 90.96278972709108 -0.5 Z"/><text text-anchor="middle" pointer-events="none" font-size="8px" fill="#000000" x="81.29482097709108" y="3" font-family="sans-serif">trek</text></g><g class="relationship" transform="translate(-4.094087895866969 -109.71141217801087) rotate(505.8308762414524)"><path class="outline" fill="#A5ABB6" stroke="none" d="M 24.018736134675446,-6.953439040707552 L 24.277555179777966,-5.987513214418485 A 216.67515600138404 216.67515600138404 0 0 1 68.40742441156272,-13.040769557387222 L 68.35227370595133,-14.039247599043904 A 217.67515600138404 217.67515600138404 0 0 0 24.018736134675446,-6.953439040707552 Z M 87.72522638776344,-14.2458056442278 L 87.69137771908845,-13.246378674595235 A 216.67515600138404 216.67515600138404 0 0 1 131.96160370754643,-7.135660682009474 L 131.24710935794428,-4.221986399529257 L 138.87925942493396,-5.954119580017845 L 132.9142628403493,-11.020559725316431 L 132.19976849074715,-8.106885442836214 A 217.67515600138404 217.67515600138404 0 0 0 87.72522638776344,-14.2458056442278"/><text text-anchor="middle" pointer-events="none" font-size="8px" fill="#000000" x="78.04178162574057" y="-10.858196692957108" transform="rotate(180 78.04178162574057 -13.858196692957108)" font-family="sans-serif">trek</text></g><g class="relationship" transform="translate(-139.08985576104064 -18.074691411301313) rotate(384.42324538496587)"><path class="outline" fill="#A5ABB6" stroke="none" d="M 24.018736134675446,-6.953439040707552 L 24.277555179777966,-5.987513214418485 A 196.1258740191772 196.1258740191772 0 0 1 63.174195017313636,-12.311145721910577 L 63.11370084919157,-13.309314272618934 A 197.1258740191772 197.1258740191772 0 0 0 24.018736134675446,-6.953439040707552 Z M 82.48974697391805,-13.52946980945876 L 82.45194838254757,-12.53018443155591 A 196.1258740191772 196.1258740191772 0 0 1 121.4822292168999,-7.091977306742889 L 120.7718145992084,-4.177305614944608 L 128.4015322673778,-5.920121814095787 L 122.42944870715522,-10.978206229140596 L 121.71903408946372,-8.063534537342315 A 197.1258740191772 197.1258740191772 0 0 0 82.48974697391805,-13.52946980945876"/><text text-anchor="middle" pointer-events="none" font-size="8px" fill="#000000" x="72.80469789916988" y="-10.15764926576594" font-family="sans-serif">trek</text></g><g class="relationship" transform="translate(-0.06274827838638686 45.05882493337948) rotate(401.76554454413355)"><path class="outline" fill="#A5ABB6" stroke="none" d="M 24.018736134675446,6.953439040707552 L 24.277555179777966,5.987513214418485 A 199.47563157116738 199.47563157116738 0 0 0 64.02646673564318,12.43045163779982 L 63.966914694950084,13.428676840070978 A 200.47563157116738 200.47563157116738 0 0 1 24.018736134675446,6.953439040707552 Z M 83.34242329937757,13.646497004036405 L 83.30532764053441,12.647185284854146 A 199.47563157116738 199.47563157116738 0 0 0 123.18903844761842,7.099479663574914 L 122.47792315382125,4.184978842005675 L 130.10805958024616,5.925960781643065 L 124.1371921726813,10.985480759000566 L 123.42607687888413,8.070979937431327 A 200.47563157116738 200.47563157116738 0 0 1 83.34242329937757,13.646497004036405"/><text text-anchor="middle" pointer-events="none" font-size="8px" fill="#000000" x="73.65765647811963" y="16.271844936045454" font-family="sans-serif">trek</text></g><g class="relationship" transform="translate(-0.06274827838638686 45.05882493337948) rotate(401.76554454413355)"><path class="outline" fill="#A5ABB6" stroke="none" d="M 24.018736134675446,-6.953439040707552 L 24.277555179777966,-5.987513214418485 A 199.47563157116738 199.47563157116738 0 0 1 50.557615136357995,-11.167396512193733 L 50.43054180750956,-12.159289837655393 A 200.47563157116738 200.47563157116738 0 0 0 24.018736134675446,-6.953439040707552 Z M 96.90391245623069,-12.68174514045026 L 96.79917022582885,-11.687245736141506 A 199.47563157116738 199.47563157116738 0 0 1 123.18903844761842,-7.099479663574914 L 122.47792315382125,-4.184978842005675 L 130.10805958024616,-5.925960781643065 L 124.1371921726813,-10.985480759000566 L 123.42607687888413,-8.070979937431327 A 200.47563157116738 200.47563157116738 0 0 0 96.90391245623069,-12.68174514045026"/><text text-anchor="middle" pointer-events="none" font-size="8px" fill="#000000" x="73.65765647811966" y="-10.271844936045454" font-family="sans-serif">twowheeler</text></g><g class="relationship" transform="translate(-139.08985576104064 -18.074691411301313) rotate(384.42324538496587)"><path class="outline" fill="#A5ABB6" stroke="none" d="M 24.018736134675446,6.953439040707552 L 24.277555179777966,5.987513214418485 A 196.1258740191772 196.1258740191772 0 0 0 49.7079446824887,11.027660907162215 L 49.578789250766555,12.019285268730982 A 197.1258740191772 197.1258740191772 0 0 1 24.018736134675446,6.953439040707552 Z M 96.05047577537447,12.547308325076841 L 95.94388495229452,11.553005354933845 A 196.1258740191772 196.1258740191772 0 0 0 121.4822292168999,7.091977306742889 L 120.7718145992084,4.177305614944608 L 128.4015322673778,5.920121814095787 L 122.42944870715522,10.978206229140596 L 121.71903408946372,8.063534537342315 A 197.1258740191772 197.1258740191772 0 0 1 96.05047577537447,12.547308325076841"/><text text-anchor="middle" pointer-events="none" font-size="8px" fill="#000000" x="72.8046978991699" y="16.15764926576594" font-family="sans-serif">twowheeler</text></g><g class="relationship" transform="translate(-4.094087895866969 -109.71141217801087) rotate(505.8308762414524)"><path class="outline" fill="#A5ABB6" stroke="none" d="M 24.018736134675446,6.953439040707552 L 24.277555179777966,5.987513214418485 A 216.67515600138404 216.67515600138404 0 0 0 54.92688242964587,11.873035276599182 L 54.80951627566149,12.866123986583801 A 217.67515600138404 217.67515600138404 0 0 1 24.018736134675446,6.953439040707552 Z M 101.28991830946418,13.361706727178444 L 101.19375342532906,12.366341309324639 A 216.67515600138404 216.67515600138404 0 0 0 131.96160370754643,7.135660682009474 L 131.24710935794428,4.221986399529257 L 138.87925942493396,5.954119580017845 L 132.9142628403493,11.020559725316431 L 132.19976849074715,8.106885442836214 A 217.67515600138404 217.67515600138404 0 0 1 101.28991830946418,13.361706727178444"/><text text-anchor="middle" pointer-events="none" font-size="8px" fill="#000000" x="78.04178162574055" y="16.858196692957108" transform="rotate(180 78.04178162574055 13.858196692957108)" font-family="sans-serif">twowheeler</text></g><g class="relationship" transform="translate(-125.69646034935435 -195.48728565660076) rotate(395.1983752768343)"><path class="outline" fill="#A5ABB6" stroke="none" d="M 25 0.5 L 61.23740312819797 0.5 L 61.23740312819797 -0.5 L 25 -0.5 Z M 80.57334062819797 0.5 L 116.81074375639594 0.5 L 116.81074375639594 3.5 L 123.81074375639594 0 L 116.81074375639594 -3.5 L 116.81074375639594 -0.5 L 80.57334062819797 -0.5 Z"/><text text-anchor="middle" pointer-events="none" font-size="8px" fill="#000000" x="70.90537187819797" y="3" font-family="sans-serif">trek</text></g><g class="relationship" transform="translate(-125.69646034935435 -195.48728565660076) rotate(395.1983752768343)"><path class="outline" fill="#A5ABB6" stroke="none" d="M 21.40063509461097,-12.933012701892217 L 21.90063509461097,-12.06698729810778 A 102.32821554824245 102.32821554824245 0 0 1 40.60973973429961,-20.493176005123743 L 40.29257400478357,-21.441546133301856 A 103.32821554824245 103.32821554824245 0 0 0 21.40063509461097,-12.933012701892217 Z M 101.37657540092017,-22.82199406894729 L 101.10257635446447,-21.860264105526497 A 102.32821554824245 102.32821554824245 0 0 1 120.1732358117788,-14.287866835955235 L 118.79213600395,-11.624680150644702 L 126.61752137880816,-11.509165065239836 L 122.01470222221717,-17.83878241636928 L 120.63360241438838,-15.175595731058745 A 103.32821554824245 103.32821554824245 0 0 0 101.37657540092017,-22.82199406894729"/><text text-anchor="middle" pointer-events="none" font-size="8px" fill="#000000" x="70.74150339142761" y="-23.250120362789218" font-family="sans-serif">PublicTransport</text></g><g class="relationship" transform="translate(-4.094087895866969 -109.71141217801087) rotate(295.91629357294727)"><path class="outline" fill="#A5ABB6" stroke="none" d="M 25 0.5 L 65.35606434064323 0.5 L 65.35606434064323 -0.5 L 25 -0.5 Z M 84.69200184064323 0.5 L 125.04806618128646 0.5 L 125.04806618128646 3.5 L 132.04806618128646 0 L 125.04806618128646 -3.5 L 125.04806618128646 -0.5 L 84.69200184064323 -0.5 Z"/><text text-anchor="middle" pointer-events="none" font-size="8px" fill="#000000" x="75.02403309064323" y="3" font-family="sans-serif">trek</text></g><g class="relationship" transform="translate(-139.08985576104064 -18.074691411301313) rotate(449.4920406621278)"><path class="outline" fill="#A5ABB6" stroke="none" d="M 24.018736134675446,-6.953439040707552 L 24.277555179777966,-5.987513214418485 A 190.57557975294424 190.57557975294424 0 0 1 61.76279508285854,-12.113108223845387 L 61.700670913099835,-13.11117665212663 A 191.57557975294424 191.57557975294424 0 0 0 24.018736134675446,-6.953439040707552 Z M 81.07763886119407,-13.335311977088594 L 81.03861773898456,-12.336073591105787 A 190.57557975294424 190.57557975294424 0 0 1 118.65551988003301,-7.079192565078774 L 117.946299288594,-4.164230103454457 L 125.57530238906293,-5.910171595325124 L 119.60114733528503,-10.965809180577862 L 118.89192674384603,-8.050846718953546 A 191.57557975294424 191.57557975294424 0 0 0 81.07763886119407,-13.335311977088594"/><text text-anchor="middle" pointer-events="none" font-size="8px" fill="#000000" x="71.39210226696798" y="-9.968437160346724" font-family="sans-serif">trek</text></g><g class="relationship" transform="translate(-137.76122089663096 131.78607523806613) rotate(327.795860501415)"><path class="outline" fill="#A5ABB6" stroke="none" d="M 21.40063509461097,12.933012701892217 L 21.90063509461097,12.06698729810778 A 116.48128302523422 116.48128302523422 0 0 0 54.797603800040264,24.88199112738944 L 54.58002658807139,25.858034239568326 A 117.48128302523422 117.48128302523422 0 0 1 21.40063509461097,12.933012701892217 Z M 100.92736394385332,26.819047085686734 L 100.75043288895361,25.834823837733268 A 116.48128302523422 116.48128302523422 0 0 0 134.15033650890638,14.394486809115461 L 132.75932178536547,11.736465357190657 L 140.5842223506544,11.591789362840837 L 136.0050228069609,17.938515411681866 L 134.61400808342,15.280493959757061 A 117.48128302523422 117.48128302523422 0 0 1 100.92736394385332,26.819047085686734"/><text text-anchor="middle" pointer-events="none" font-size="8px" fill="#000000" x="77.71618893545028" y="31.147380742384684" font-family="sans-serif">twowheeler</text></g><g class="relationship" transform="translate(-137.76122089663096 131.78607523806613) rotate(327.795860501415)"><path class="outline" fill="#A5ABB6" stroke="none" d="M 25 0.5 L 68.19923180834725 0.5 L 68.19923180834725 -0.5 L 25 -0.5 Z M 87.53516930834725 0.5 L 130.7344011166945 0.5 L 130.7344011166945 3.5 L 137.7344011166945 0 L 130.7344011166945 -3.5 L 130.7344011166945 -0.5 L 87.53516930834725 -0.5 Z"/><text text-anchor="middle" pointer-events="none" font-size="8px" fill="#000000" x="77.86720055834725" y="3" font-family="sans-serif">trek</text></g><g class="relationship" transform="translate(-137.76122089663096 131.78607523806613) rotate(327.795860501415)"><path class="outline" fill="#A5ABB6" stroke="none" d="M 21.40063509461097,-12.933012701892217 L 21.90063509461097,-12.06698729810778 A 116.48128302523422 116.48128302523422 0 0 1 66.79692635787151,-26.90561658340563 L 66.68236417326314,-27.89903266232612 A 117.48128302523422 117.48128302523422 0 0 0 21.40063509461097,-12.933012701892217 Z M 88.75082456641259,-28.356622572380076 L 88.67754014409883,-27.359311490798135 A 116.48128302523422 116.48128302523422 0 0 1 134.15033650890638,-14.394486809115461 L 132.75932178536547,-11.736465357190657 L 140.5842223506544,-11.591789362840837 L 136.0050228069609,-17.938515411681866 L 134.61400808342,-15.280493959757061 A 117.48128302523422 117.48128302523422 0 0 0 88.75082456641259,-28.356622572380076"/><text text-anchor="middle" pointer-events="none" font-size="8px" fill="#000000" x="77.71618893545028" y="-25.147380742384684" font-family="sans-serif">road</text></g><g class="relationship" transform="translate(-139.08985576104064 -18.074691411301313) rotate(449.4920406621278)"><path class="outline" fill="#A5ABB6" stroke="none" d="M 24.018736134675446,6.953439040707552 L 24.277555179777966,5.987513214418485 A 190.57557975294424 190.57557975294424 0 0 0 48.30112781126406,10.794257215211815 L 48.16836674621664,11.785405286696317 A 191.57557975294424 191.57557975294424 0 0 1 24.018736134675446,6.953439040707552 Z M 94.63698888410177,12.322912483452257 L 94.52718969069761,11.328958693214588 A 190.57557975294424 190.57557975294424 0 0 0 118.65551988003301,7.079192565078774 L 117.946299288594,4.164230103454457 L 125.57530238906293,5.910171595325124 L 119.60114733528503,10.965809180577862 L 118.89192674384603,8.050846718953546 A 191.57557975294424 191.57557975294424 0 0 1 94.63698888410177,12.322912483452257"/><text text-anchor="middle" pointer-events="none" font-size="8px" fill="#000000" x="71.39210226696802" y="15.968437160346724" font-family="sans-serif">twowheeler</text></g><g class="relationship" transform="translate(-137.76122089663096 131.78607523806613) rotate(398.14747934471114)"><path class="outline" fill="#A5ABB6" stroke="none" d="M 25 0.5 L 62.9805808131014 0.5 L 62.9805808131014 -0.5 L 25 -0.5 Z M 82.3165183131014 0.5 L 120.2970991262028 0.5 L 120.2970991262028 3.5 L 127.2970991262028 0 L 120.2970991262028 -3.5 L 120.2970991262028 -0.5 L 82.3165183131014 -0.5 Z"/><text text-anchor="middle" pointer-events="none" font-size="8px" fill="#000000" x="72.6485495631014" y="3" font-family="sans-serif">trek</text></g><g class="relationship" transform="translate(-17.991213494013458 225.85813128572246) rotate(329.63962953690583)"><path class="outline" fill="#A5ABB6" stroke="none" d="M 25 0.5 L 63.95229665421468 0.5 L 63.95229665421468 -0.5 L 25 -0.5 Z M 83.28823415421468 0.5 L 122.24053080842936 0.5 L 122.24053080842936 3.5 L 129.24053080842936 0 L 122.24053080842936 -3.5 L 122.24053080842936 -0.5 L 83.28823415421468 -0.5 Z"/><text text-anchor="middle" pointer-events="none" font-size="8px" fill="#000000" x="73.62026540421468" y="3" font-family="sans-serif">trek</text></g></g><g class="layer nodes"><g class="node" aria-label="graph-node177" transform="translate(-125.69646034935435,-195.48728565660076)"><circle class="outline" cx="0" cy="0" r="25" fill="#57C7E3" stroke="#23b3d7" stroke-width="2px"/><text class="caption" text-anchor="middle" pointer-events="none" x="0" y="5" font-size="10px" fill="#2A2C34" font-family="sans-serif"> Darjeeling</text></g><g class="node" aria-label="graph-node179" transform="translate(115.09730600508537,147.89924903614144)"><circle class="outline" cx="0" cy="0" r="25" fill="#D9C8AE" stroke="#c0a378" stroke-width="2px"/><text class="caption" text-anchor="middle" pointer-events="none" x="0" y="5" font-size="10px" fill="#2A2C34" font-family="sans-serif"> Sandakp…</text></g><g class="node" aria-label="graph-node182" transform="translate(64.54496044825963,-250.96570816115747)"><circle class="outline" cx="0" cy="0" r="25" fill="#F16667" stroke="#eb2728" stroke-width="2px"/><text class="caption" text-anchor="middle" pointer-events="none" x="0" y="5" font-size="10px" fill="#FFFFFF" font-family="sans-serif"> Tumbling</text></g><g class="node" aria-label="graph-node183" transform="translate(183.965714826566,-156.54140715651053)"><circle class="outline" cx="0" cy="0" r="25" fill="#F16667" stroke="#eb2728" stroke-width="2px"/><text class="caption" text-anchor="middle" pointer-events="none" x="0" y="5" font-size="10px" fill="#FFFFFF" font-family="sans-serif"> Gairibus</text></g><g class="node" aria-label="graph-node178" transform="translate(135.8625421779795,-13.936737255460548)"><circle class="outline" cx="0" cy="0" r="25" fill="#F16667" stroke="#eb2728" stroke-width="2px"/><text class="caption" text-anchor="middle" pointer-events="none" x="0" y="5" font-size="10px" fill="#FFFFFF" font-family="sans-serif"> BhikeBh…</text></g><g class="node" aria-label="graph-node176" transform="translate(-4.094087895866969,-109.71141217801087)"><circle class="outline" cx="0" cy="0" r="25" fill="#57C7E3" stroke="#23b3d7" stroke-width="2px"/><text class="caption" text-anchor="middle" pointer-events="none" x="0" y="5" font-size="10px" fill="#2A2C34" font-family="sans-serif"> Rimbik</text></g><g class="node" aria-label="graph-node180" transform="translate(-139.08985576104064,-18.074691411301313)"><circle class="outline" cx="0" cy="0" r="25" fill="#F16667" stroke="#eb2728" stroke-width="2px"/><text class="caption" text-anchor="middle" pointer-events="none" x="0" y="5" font-size="10px" fill="#FFFFFF" font-family="sans-serif"> Sirikhola</text></g><g class="node" aria-label="graph-node181" transform="translate(-0.06274827838638686,45.05882493337948)"><circle class="outline" cx="0" cy="0" r="25" fill="#F16667" stroke="#eb2728" stroke-width="2px"/><text class="caption" text-anchor="middle" pointer-events="none" x="0" y="5" font-size="10px" fill="#FFFFFF" font-family="sans-serif"> Gurdum</text></g><g class="node" aria-label="graph-node184" transform="translate(-137.76122089663096,131.78607523806613)"><circle class="outline" cx="0" cy="0" r="25" fill="#F16667" stroke="#eb2728" stroke-width="2px"/><text class="caption" text-anchor="middle" pointer-events="none" x="0" y="5" font-size="10px" fill="#FFFFFF" font-family="sans-serif"> Rammam</text></g><g class="node" aria-label="graph-node185" transform="translate(-17.991213494013458,225.85813128572246)"><circle class="outline" cx="0" cy="0" r="25" fill="#D9C8AE" stroke="#c0a378" stroke-width="2px"/><text class="caption" text-anchor="middle" pointer-events="none" x="0" y="5" font-size="10px" fill="#2A2C34" font-family="sans-serif"> Sabargr…</text></g></g></svg>