<svg xmlns="http://www.w3.org/2000/svg" width="236.194091796875" height="210.92117309570312" viewBox="-222.96588134765625 -107.38416290283203 236.194091796875 210.92117309570312"><title>Neo4j Graph Visualization</title><desc>Created using Neo4j (http://www.neo4j.com/)</desc><g class="layer relationships"><g class="relationship" transform="translate(-170.48684219199615 68.84958894577294) rotate(358.73301878456186)"><path class="outline" fill="#A5ABB6" stroke="none" d="M 21.40063509461097,12.933012701892217 L 21.90063509461097,12.06698729810778 A 108.37330508157515 108.37330508157515 0 0 0 43.51876063205912,21.576699533889396 L 43.218238958582205,22.530474519811463 A 109.37330508157515 109.37330508157515 0 0 1 21.40063509461097,12.933012701892217 Z M 104.38660175580127,23.86175079070749 L 104.12786116001058,22.89580394740301 A 108.37330508157515 108.37330508157515 0 0 0 126.13926162561832,14.335650438096748 L 124.7537181852145,11.674772880832244 L 132.57889983263615,11.546195336698563 L 127.9866528794901,17.883487181116088 L 126.60110943908627,15.222609623851584 A 109.37330508157515 109.37330508157515 0 0 1 104.38660175580127,23.86175079070749"/><text text-anchor="middle" pointer-events="none" font-size="8px" fill="#000000" x="73.71831574134514" y="30.06048083149284" font-family="sans-serif">PublicTransport</text></g><g class="relationship" transform="translate(-15.771797052944267 65.42781836733926) rotate(259.5517185658274)"><path class="outline" fill="#A5ABB6" stroke="none" d="M 25 0.5 L 59.95039783628066 0.5 L 59.95039783628066 -0.5 L 25 -0.5 Z M 79.28633533628066 0.5 L 114.23673317256132 0.5 L 114.23673317256132 3.5 L 121.23673317256132 0 L 114.23673317256132 -3.5 L 114.23673317256132 -0.5 L 79.28633533628066 -0.5 Z"/><text text-anchor="middle" pointer-events="none" font-size="8px" fill="#000000" x="69.61836658628066" y="3" transform="rotate(180 69.61836658628066 0)" font-family="sans-serif">trek</text></g><g class="relationship" transform="translate(-42.29152257322585 -78.38416405176177) rotate(528.5987024334827)"><path class="outline" fill="#A5ABB6" stroke="none" d="M 25 0.5 L 64.19585432972058 0.5 L 64.19585432972058 -0.5 L 25 -0.5 Z M 83.53179182972058 0.5 L 122.72764615944115 0.5 L 122.72764615944115 3.5 L 129.72764615944115 0 L 122.72764615944115 -3.5 L 122.72764615944115 -0.5 L 83.53179182972058 -0.5 Z"/><text text-anchor="middle" pointer-events="none" font-size="8px" fill="#000000" x="73.86382307972058" y="3" transform="rotate(180 73.86382307972058 0)" font-family="sans-serif">trek</text></g><g class="relationship" transform="translate(-170.48684219199615 68.84958894577294) rotate(358.73301878456186)"><path class="outline" fill="#A5ABB6" stroke="none" d="M 25 0.5 L 64.2084709882535 0.5 L 64.2084709882535 -0.5 L 25 -0.5 Z M 83.5444084882535 0.5 L 122.75287947650699 0.5 L 122.75287947650699 3.5 L 129.752879476507 0 L 122.75287947650699 -3.5 L 122.75287947650699 -0.5 L 83.5444084882535 -0.5 Z"/><text text-anchor="middle" pointer-events="none" font-size="8px" fill="#000000" x="73.8764397382535" y="3" font-family="sans-serif">trek</text></g><g class="relationship" transform="translate(-170.48684219199615 68.84958894577294) rotate(358.73301878456186)"><path class="outline" fill="#A5ABB6" stroke="none" d="M 21.40063509461097,-12.933012701892217 L 21.90063509461097,-12.06698729810778 A 108.37330508157515 108.37330508157515 0 0 1 62.80715688417988,-25.769501696857347 L 62.684616275667274,-26.76196519707554 A 109.37330508157515 109.37330508157515 0 0 0 21.40063509461097,-12.933012701892217 Z M 84.75455504253688,-27.24229823913953 L 84.67531022680534,-26.245443054481456 A 108.37330508157515 108.37330508157515 0 0 1 126.13926162561832,-14.335650438096748 L 124.7537181852145,-11.674772880832244 L 132.57889983263615,-11.546195336698563 L 127.9866528794901,-17.883487181116088 L 126.60110943908627,-15.222609623851584 A 109.37330508157515 109.37330508157515 0 0 0 84.75455504253688,-27.24229823913953"/><text text-anchor="middle" pointer-events="none" font-size="8px" fill="#000000" x="73.71831574134517" y="-24.06048083149284" font-family="sans-serif">road</text></g></g><g class="layer nodes"><g class="node" aria-label="graph-node177" transform="translate(-170.48684219199615,68.84958894577294)"><circle class="outline" cx="0" cy="0" r="25" fill="#57C7E3" stroke="#23b3d7" stroke-width="2px"/><text class="caption" text-anchor="middle" pointer-events="none" x="0" y="5" font-size="10px" fill="#2A2C34" font-family="sans-serif"> Darjeeling</text></g><g class="node" aria-label="graph-node179" transform="translate(-193.9658813729252,-47.79767408084015)"><circle class="outline" cx="0" cy="0" r="25" fill="#D9C8AE" stroke="#c0a378" stroke-width="2px"/><text class="caption" text-anchor="middle" pointer-events="none" x="0" y="5" font-size="10px" fill="#2A2C34" font-family="sans-serif"> Sandakp…</text></g><g class="node" aria-label="graph-node176" transform="translate(-15.771797052944267,65.42781836733926)"><circle class="outline" cx="0" cy="0" r="25" fill="#57C7E3" stroke="#23b3d7" stroke-width="2px"/><text class="caption" text-anchor="middle" pointer-events="none" x="0" y="5" font-size="10px" fill="#2A2C34" font-family="sans-serif"> Rimbik</text></g><g class="node" aria-label="graph-node178" transform="translate(-42.29152257322585,-78.38416405176177)"><circle class="outline" cx="0" cy="0" r="25" fill="#F16667" stroke="#eb2728" stroke-width="2px"/><text class="caption" text-anchor="middle" pointer-events="none" x="0" y="5" font-size="10px" fill="#FFFFFF" font-family="sans-serif"> BhikeBh…</text></g></g></svg>