<svg xmlns="http://www.w3.org/2000/svg" width="343.541748046875" height="201.15283203125" viewBox="-175.01695251464844 -66.475341796875 343.541748046875 201.15283203125"><title>Neo4j Graph Visualization</title><desc>Created using Neo4j (http://www.neo4j.com/)</desc><g class="layer relationships"><g class="relationship" transform="translate(139.52479122218526 105.67748147428429) rotate(184.7082240312904)"><path class="outline" fill="#A5ABB6" stroke="none" d="M 25 0.5 L 44.53902482604505 0.5 L 44.53902482604505 -0.5 L 25 -0.5 Z M 91.42964982604505 0.5 L 110.9686746520901 0.5 L 110.9686746520901 3.5 L 117.9686746520901 0 L 110.9686746520901 -3.5 L 110.9686746520901 -0.5 L 91.42964982604505 -0.5 Z"/><text text-anchor="middle" pointer-events="none" font-size="8px" fill="#000000" x="67.98433732604505" y="3" transform="rotate(180 67.98433732604505 0)" font-family="sans-serif">DIRECTED</text></g><g class="relationship" transform="translate(63.66999177268824 -35.650679272281195) rotate(477.21037011972504)"><path class="outline" fill="#A5ABB6" stroke="none" d="M 25 0.5 L 51.47292846054549 0.5 L 51.47292846054549 -0.5 L 25 -0.5 Z M 87.24636596054549 0.5 L 113.71929442109098 0.5 L 113.71929442109098 3.5 L 120.71929442109098 0 L 113.71929442109098 -3.5 L 113.71929442109098 -0.5 L 87.24636596054549 -0.5 Z"/><text text-anchor="middle" pointer-events="none" font-size="8px" fill="#000000" x="69.35964721054549" y="3" transform="rotate(180 69.35964721054549 0)" font-family="sans-serif">WROTE</text></g><g class="relationship" transform="translate(-65.86888394552678 -37.47534132815293) rotate(424.42035477654906)"><path class="outline" fill="#A5ABB6" stroke="none" d="M 25 0.5 L 51.462380297834315 0.5 L 51.462380297834315 -0.5 L 25 -0.5 Z M 87.23581779783432 0.5 L 113.69819809566863 0.5 L 113.69819809566863 3.5 L 120.69819809566863 0 L 113.69819809566863 -3.5 L 113.69819809566863 -0.5 L 87.23581779783432 -0.5 Z"/><text text-anchor="middle" pointer-events="none" font-size="8px" fill="#000000" x="69.34909904783432" y="3" font-family="sans-serif">WROTE</text></g><g class="relationship" transform="translate(-146.01695721660374 92.15913867857887) rotate(360.71418047703725)"><path class="outline" fill="#A5ABB6" stroke="none" d="M 25 0.5 L 45.25205957923038 0.5 L 45.25205957923038 -0.5 L 25 -0.5 Z M 90.81455957923038 0.5 L 111.06661915846075 0.5 L 111.06661915846075 3.5 L 118.06661915846075 0 L 111.06661915846075 -3.5 L 111.06661915846075 -0.5 L 90.81455957923038 -0.5 Z"/><text text-anchor="middle" pointer-events="none" font-size="8px" fill="#000000" x="68.03330957923038" y="3" font-family="sans-serif">ACTED_IN</text></g></g><g class="layer nodes"><g class="node" aria-label="graph-node171" transform="translate(-2.961452134570147,93.94238940584863)"><circle class="outline" cx="0" cy="0" r="25" fill="#F79767" stroke="#f36924" stroke-width="2px"/><text class="caption" text-anchor="middle" pointer-events="none" x="0" y="-5" font-size="10px" fill="#FFFFFF" font-family="sans-serif"> Captain</text><text class="caption" text-anchor="middle" pointer-events="none" x="0" y="5" font-size="10px" fill="#FFFFFF" font-family="sans-serif"> America:</text><text class="caption" text-anchor="middle" pointer-events="none" x="0" y="15" font-size="10px" fill="#FFFFFF" font-family="sans-serif"> Th</text></g><g class="node" aria-label="graph-node172" transform="translate(139.52479122218526,105.67748147428429)"><circle class="outline" cx="0" cy="0" r="25" fill="#C990C0" stroke="#b261a5" stroke-width="2px"/><text class="caption" text-anchor="middle" pointer-events="none" x="0" y="0" font-size="10px" fill="#FFFFFF" font-family="sans-serif"> Joe</text><text class="caption" text-anchor="middle" pointer-events="none" x="0" y="10" font-size="10px" fill="#FFFFFF" font-family="sans-serif"> Johnst…</text></g><g class="node" aria-label="graph-node173" transform="translate(63.66999177268824,-35.650679272281195)"><circle class="outline" cx="0" cy="0" r="25" fill="#C990C0" stroke="#b261a5" stroke-width="2px"/><text class="caption" text-anchor="middle" pointer-events="none" x="0" y="5" font-size="10px" fill="#FFFFFF" font-family="sans-serif"> Christop…</text></g><g class="node" aria-label="graph-node174" transform="translate(-65.86888394552678,-37.47534132815293)"><circle class="outline" cx="0" cy="0" r="25" fill="#C990C0" stroke="#b261a5" stroke-width="2px"/><text class="caption" text-anchor="middle" pointer-events="none" x="0" y="0" font-size="10px" fill="#FFFFFF" font-family="sans-serif"> Stephen</text><text class="caption" text-anchor="middle" pointer-events="none" x="0" y="10" font-size="10px" fill="#FFFFFF" font-family="sans-serif"> McFe…</text></g><g class="node" aria-label="graph-node175" transform="translate(-146.01695721660374,92.15913867857887)"><circle class="outline" cx="0" cy="0" r="25" fill="#C990C0" stroke="#b261a5" stroke-width="2px"/><text class="caption" text-anchor="middle" pointer-events="none" x="0" y="0" font-size="10px" fill="#FFFFFF" font-family="sans-serif"> Chris</text><text class="caption" text-anchor="middle" pointer-events="none" x="0" y="10" font-size="10px" fill="#FFFFFF" font-family="sans-serif"> Evans</text></g></g></svg>